G04 #@! TF.GenerationSoftware,KiCad,Pcbnew,(5.1.0-11-g23086decc)*
G04 #@! TF.CreationDate,2019-03-17T16:15:23-07:00*
G04 #@! TF.ProjectId,speeduino_mini,73706565-6475-4696-9e6f-5f6d696e692e,rev?*
G04 #@! TF.SameCoordinates,Original*
G04 #@! TF.FileFunction,Paste,Top*
G04 #@! TF.FilePolarity,Positive*
%FSLAX46Y46*%
G04 Gerber Fmt 4.6, Leading zero omitted, Abs format (unit mm)*
G04 Created by KiCad (PCBNEW (5.1.0-11-g23086decc)) date 2019-03-17 16:15:23*
%MOMM*%
%LPD*%
G04 APERTURE LIST*
%ADD10C,0.200000*%
%ADD11R,1.250000X1.000000*%
%ADD12R,1.000000X1.250000*%
%ADD13R,1.060000X0.650000*%
%ADD14R,3.100000X5.000000*%
%ADD15R,1.300000X0.700000*%
%ADD16R,1.600000X1.000000*%
%ADD17R,0.800000X0.900000*%
%ADD18R,0.600000X1.550000*%
%ADD19R,0.700000X1.300000*%
%ADD20R,2.200000X0.600000*%
%ADD21R,2.300000X3.500000*%
%ADD22R,0.400000X1.900000*%
%ADD23R,2.000000X1.100000*%
%ADD24R,0.800000X0.800000*%
%ADD25R,0.900000X0.800000*%
%ADD26R,0.700000X0.510000*%
%ADD27R,1.500000X0.550000*%
%ADD28R,0.550000X1.500000*%
%ADD29R,2.000000X3.800000*%
%ADD30R,2.000000X1.500000*%
%ADD31R,0.600000X0.450000*%
%ADD32R,0.900000X1.200000*%
%ADD33R,5.400000X2.900000*%
%ADD34R,2.900000X5.400000*%
%ADD35R,0.800000X0.300000*%
%ADD36R,1.550000X0.600000*%
%ADD37R,0.705000X0.705000*%
%ADD38R,1.100000X1.100000*%
%ADD39R,2.500000X2.550000*%
%ADD40R,1.270000X1.400000*%
%ADD41R,4.800000X4.720000*%
G04 APERTURE END LIST*
D10*
X72585000Y-139040000D02*
X72585000Y-39040000D01*
X172585000Y-139040000D02*
X72585000Y-139040000D01*
X172585000Y-39040000D02*
X172585000Y-139040000D01*
X72585000Y-39040000D02*
X172585000Y-39040000D01*
D11*
X84709000Y-88535000D03*
X84709000Y-90535000D03*
D12*
X121301000Y-116268500D03*
X123301000Y-116268500D03*
X121301000Y-114363500D03*
X123301000Y-114363500D03*
X121301000Y-112458500D03*
X123301000Y-112458500D03*
D13*
X129243000Y-90358000D03*
X129243000Y-89408000D03*
X129243000Y-88458000D03*
X127043000Y-88458000D03*
X127043000Y-90358000D03*
X127043000Y-89408000D03*
D12*
X123301000Y-85979000D03*
X121301000Y-85979000D03*
X119110000Y-112395000D03*
X117110000Y-112395000D03*
X127270000Y-85979000D03*
X129270000Y-85979000D03*
D11*
X115189000Y-93234000D03*
X115189000Y-95234000D03*
D12*
X131302000Y-115697000D03*
X129302000Y-115697000D03*
X91932000Y-52070000D03*
X89932000Y-52070000D03*
X96790000Y-52070000D03*
X98790000Y-52070000D03*
D11*
X125095000Y-79645000D03*
X125095000Y-81645000D03*
X122555000Y-79645000D03*
X122555000Y-81645000D03*
X127635000Y-81645000D03*
X127635000Y-79645000D03*
D12*
X126730000Y-51435000D03*
X124730000Y-51435000D03*
X120920000Y-51435000D03*
X122920000Y-51435000D03*
D11*
X103505000Y-51070000D03*
X103505000Y-53070000D03*
X101092000Y-53070000D03*
X101092000Y-51070000D03*
X113665000Y-51070000D03*
X113665000Y-53070000D03*
X111125000Y-53070000D03*
X111125000Y-51070000D03*
X109347000Y-95107000D03*
X109347000Y-93107000D03*
D12*
X113268000Y-93091000D03*
X111268000Y-93091000D03*
X159020000Y-127000000D03*
X161020000Y-127000000D03*
X96409000Y-107696000D03*
X98409000Y-107696000D03*
X101965000Y-107696000D03*
X99965000Y-107696000D03*
D11*
X104521000Y-102997000D03*
X104521000Y-100997000D03*
X104521000Y-104775000D03*
X104521000Y-106775000D03*
D12*
X127651000Y-127000000D03*
X129651000Y-127000000D03*
X117475000Y-126873000D03*
X119475000Y-126873000D03*
X97171000Y-126873000D03*
X99171000Y-126873000D03*
X107315000Y-127000000D03*
X109315000Y-127000000D03*
D14*
X104737000Y-115316000D03*
X93637000Y-115316000D03*
D15*
X112903000Y-97094000D03*
X112903000Y-98994000D03*
D16*
X102870000Y-96750000D03*
X102870000Y-93750000D03*
D17*
X103185000Y-125238000D03*
X101285000Y-125238000D03*
X102235000Y-127238000D03*
X113345000Y-125238000D03*
X111445000Y-125238000D03*
X112395000Y-127238000D03*
D18*
X110109000Y-101186000D03*
X108839000Y-101186000D03*
X107569000Y-101186000D03*
X106299000Y-101186000D03*
X106299000Y-106586000D03*
X107569000Y-106586000D03*
X108839000Y-106586000D03*
X110109000Y-106586000D03*
D19*
X126743500Y-115189000D03*
X124843500Y-115189000D03*
X95311000Y-52070000D03*
X93411000Y-52070000D03*
D15*
X130175000Y-81595000D03*
X130175000Y-79695000D03*
D19*
X130490000Y-51435000D03*
X128590000Y-51435000D03*
X145730000Y-51435000D03*
X143830000Y-51435000D03*
X160970000Y-51435000D03*
X159070000Y-51435000D03*
X93411000Y-53975000D03*
X95311000Y-53975000D03*
X89982000Y-53975000D03*
X91882000Y-53975000D03*
D15*
X105537000Y-93157000D03*
X105537000Y-95057000D03*
X107442000Y-95057000D03*
X107442000Y-93157000D03*
D19*
X113218000Y-95250000D03*
X111318000Y-95250000D03*
D15*
X88011000Y-75250000D03*
X88011000Y-77150000D03*
X99314000Y-123256000D03*
X99314000Y-125156000D03*
D19*
X103058000Y-123190000D03*
X101158000Y-123190000D03*
D15*
X109474000Y-123383000D03*
X109474000Y-125283000D03*
D19*
X113345000Y-123317000D03*
X111445000Y-123317000D03*
D15*
X156845000Y-76139000D03*
X156845000Y-78039000D03*
X163195000Y-76769000D03*
X163195000Y-74869000D03*
X93853000Y-103820000D03*
X93853000Y-101920000D03*
X93853000Y-106995000D03*
X93853000Y-105095000D03*
X91821000Y-106995000D03*
X91821000Y-105095000D03*
X91821000Y-103820000D03*
X91821000Y-101920000D03*
D19*
X117160000Y-114300000D03*
X119060000Y-114300000D03*
D20*
X96414000Y-105791000D03*
X102214000Y-105791000D03*
X96414000Y-104521000D03*
X102214000Y-104521000D03*
X96414000Y-103251000D03*
X102214000Y-103251000D03*
X96414000Y-101981000D03*
X102214000Y-101981000D03*
D21*
X99314000Y-103886000D03*
D22*
X124593500Y-113093500D03*
X125793500Y-113093500D03*
X126993500Y-113093500D03*
D12*
X141970000Y-51435000D03*
X139970000Y-51435000D03*
X136160000Y-51435000D03*
X138160000Y-51435000D03*
X157210000Y-51435000D03*
X155210000Y-51435000D03*
X151400000Y-51435000D03*
X153400000Y-51435000D03*
D11*
X90551000Y-96758000D03*
X90551000Y-94758000D03*
X115189000Y-98917000D03*
X115189000Y-96917000D03*
D23*
X117410000Y-116205000D03*
D24*
X119310000Y-116205000D03*
D25*
X87487000Y-54036000D03*
X87487000Y-52136000D03*
X85487000Y-53086000D03*
D26*
X83075000Y-54671000D03*
X83075000Y-53721000D03*
X83075000Y-52771000D03*
X80755000Y-52771000D03*
X80755000Y-53721000D03*
X80755000Y-54671000D03*
D15*
X108585000Y-53020000D03*
X108585000Y-51120000D03*
X106045000Y-53020000D03*
X106045000Y-51120000D03*
X118745000Y-53020000D03*
X118745000Y-51120000D03*
X116205000Y-53020000D03*
X116205000Y-51120000D03*
D19*
X80965000Y-56769000D03*
X82865000Y-56769000D03*
D13*
X121201000Y-88458000D03*
X121201000Y-89408000D03*
X121201000Y-90358000D03*
X123401000Y-90358000D03*
X123401000Y-88458000D03*
X123401000Y-89408000D03*
D27*
X118284000Y-95600000D03*
X118284000Y-96400000D03*
X118284000Y-97200000D03*
X118284000Y-98000000D03*
X118284000Y-98800000D03*
X118284000Y-99600000D03*
X118284000Y-100400000D03*
X118284000Y-101200000D03*
X118284000Y-102000000D03*
X118284000Y-102800000D03*
X118284000Y-103600000D03*
X118284000Y-104400000D03*
X118284000Y-105200000D03*
X118284000Y-106000000D03*
X118284000Y-106800000D03*
X118284000Y-107600000D03*
D28*
X119984000Y-109300000D03*
X120784000Y-109300000D03*
X121584000Y-109300000D03*
X122384000Y-109300000D03*
X123184000Y-109300000D03*
X123984000Y-109300000D03*
X124784000Y-109300000D03*
X125584000Y-109300000D03*
X126384000Y-109300000D03*
X127184000Y-109300000D03*
X127984000Y-109300000D03*
X128784000Y-109300000D03*
X129584000Y-109300000D03*
X130384000Y-109300000D03*
X131184000Y-109300000D03*
X131984000Y-109300000D03*
D27*
X133684000Y-107600000D03*
X133684000Y-106800000D03*
X133684000Y-106000000D03*
X133684000Y-105200000D03*
X133684000Y-104400000D03*
X133684000Y-103600000D03*
X133684000Y-102800000D03*
X133684000Y-102000000D03*
X133684000Y-101200000D03*
X133684000Y-100400000D03*
X133684000Y-99600000D03*
X133684000Y-98800000D03*
X133684000Y-98000000D03*
X133684000Y-97200000D03*
X133684000Y-96400000D03*
X133684000Y-95600000D03*
D28*
X131984000Y-93900000D03*
X131184000Y-93900000D03*
X130384000Y-93900000D03*
X129584000Y-93900000D03*
X128784000Y-93900000D03*
X127984000Y-93900000D03*
X127184000Y-93900000D03*
X126384000Y-93900000D03*
X125584000Y-93900000D03*
X124784000Y-93900000D03*
X123984000Y-93900000D03*
X123184000Y-93900000D03*
X122384000Y-93900000D03*
X121584000Y-93900000D03*
X120784000Y-93900000D03*
X119984000Y-93900000D03*
D29*
X100051000Y-95631000D03*
D30*
X93751000Y-95631000D03*
X93751000Y-97931000D03*
X93751000Y-93331000D03*
D11*
X83947000Y-77200000D03*
X83947000Y-75200000D03*
X85852000Y-77200000D03*
X85852000Y-75200000D03*
X98171000Y-71707500D03*
X98171000Y-73707500D03*
X88011000Y-71390000D03*
X88011000Y-73390000D03*
D12*
X164830000Y-127000000D03*
X162830000Y-127000000D03*
X87138000Y-126238000D03*
X89138000Y-126238000D03*
D31*
X88299000Y-121920000D03*
X86199000Y-121920000D03*
D32*
X84708000Y-123825000D03*
X81408000Y-123825000D03*
D33*
X92710000Y-79605000D03*
X92710000Y-89305000D03*
D34*
X95147000Y-63373000D03*
X85447000Y-63373000D03*
D16*
X98171000Y-64603500D03*
X98171000Y-67603500D03*
X98171000Y-62587000D03*
X98171000Y-59587000D03*
D15*
X98171000Y-75250000D03*
X98171000Y-77150000D03*
D19*
X155260000Y-127000000D03*
X157160000Y-127000000D03*
X84389000Y-113411000D03*
X82489000Y-113411000D03*
D15*
X89916000Y-110302000D03*
X89916000Y-112202000D03*
D19*
X86299000Y-123825000D03*
X88199000Y-123825000D03*
D35*
X160375000Y-96024000D03*
X160375000Y-96524000D03*
X160375000Y-97024000D03*
X160375000Y-97524000D03*
X163475000Y-97524000D03*
X163475000Y-97024000D03*
X163475000Y-96524000D03*
X163475000Y-96024000D03*
X158470000Y-75704000D03*
X158470000Y-76204000D03*
X158470000Y-76704000D03*
X158470000Y-77204000D03*
X161570000Y-77204000D03*
X161570000Y-76704000D03*
X161570000Y-76204000D03*
X161570000Y-75704000D03*
X163475000Y-92444000D03*
X163475000Y-91944000D03*
X163475000Y-91444000D03*
X163475000Y-90944000D03*
X160375000Y-90944000D03*
X160375000Y-91444000D03*
X160375000Y-91944000D03*
X160375000Y-92444000D03*
D36*
X95584500Y-76406500D03*
X95584500Y-75136500D03*
X95584500Y-73866500D03*
X95584500Y-72596500D03*
X90184500Y-72596500D03*
X90184500Y-73866500D03*
X90184500Y-75136500D03*
X90184500Y-76406500D03*
D37*
X92297000Y-73914000D03*
X92297000Y-75089000D03*
X93472000Y-73914000D03*
X93472000Y-75089000D03*
D18*
X89662000Y-114394000D03*
X88392000Y-114394000D03*
X87122000Y-114394000D03*
X85852000Y-114394000D03*
X85852000Y-119794000D03*
X87122000Y-119794000D03*
X88392000Y-119794000D03*
X89662000Y-119794000D03*
D38*
X84839000Y-86360000D03*
X82039000Y-86360000D03*
D15*
X88011000Y-112202000D03*
X88011000Y-110302000D03*
D39*
X87249000Y-98283000D03*
X87249000Y-93233000D03*
D38*
X84331000Y-98425000D03*
X81531000Y-98425000D03*
X84839000Y-83820000D03*
X82039000Y-83820000D03*
X85852000Y-70736000D03*
X85852000Y-73536000D03*
D13*
X129202000Y-111889500D03*
X129202000Y-112839500D03*
X129202000Y-113789500D03*
X131402000Y-113789500D03*
X131402000Y-111889500D03*
X131402000Y-112839500D03*
D12*
X149590000Y-127000000D03*
X147590000Y-127000000D03*
X143780000Y-127000000D03*
X145780000Y-127000000D03*
D19*
X141920000Y-127000000D03*
X140020000Y-127000000D03*
D17*
X123505000Y-125238000D03*
X121605000Y-125238000D03*
X122555000Y-127238000D03*
X133665000Y-125238000D03*
X131765000Y-125238000D03*
X132715000Y-127238000D03*
D15*
X119761000Y-123256000D03*
X119761000Y-125156000D03*
D19*
X123505000Y-123444000D03*
X121605000Y-123444000D03*
D15*
X129794000Y-123383000D03*
X129794000Y-125283000D03*
D19*
X133665000Y-123317000D03*
X131765000Y-123317000D03*
D40*
X82428000Y-104291000D03*
D41*
X86228000Y-103251000D03*
D40*
X82428000Y-102211000D03*
M02*
