G04 #@! TF.GenerationSoftware,KiCad,Pcbnew,(5.1.0-11-g23086decc)*
G04 #@! TF.CreationDate,2019-03-17T16:43:26-07:00*
G04 #@! TF.ProjectId,speeduino_mini,73706565-6475-4696-9e6f-5f6d696e692e,rev?*
G04 #@! TF.SameCoordinates,Original*
G04 #@! TF.FileFunction,Copper,L1,Top*
G04 #@! TF.FilePolarity,Positive*
%FSLAX46Y46*%
G04 Gerber Fmt 4.6, Leading zero omitted, Abs format (unit mm)*
G04 Created by KiCad (PCBNEW (5.1.0-11-g23086decc)) date 2019-03-17 16:43:26*
%MOMM*%
%LPD*%
G04 APERTURE LIST*
%ADD10R,1.250000X1.000000*%
%ADD11C,2.500000*%
%ADD12C,2.000000*%
%ADD13R,1.000000X1.250000*%
%ADD14R,1.060000X0.650000*%
%ADD15C,6.200000*%
%ADD16C,1.800000*%
%ADD17R,1.800000X1.800000*%
%ADD18R,3.100000X5.000000*%
%ADD19R,1.300000X0.700000*%
%ADD20R,1.600000X1.000000*%
%ADD21R,0.800000X0.900000*%
%ADD22R,0.600000X1.550000*%
%ADD23R,0.700000X1.300000*%
%ADD24R,2.200000X0.600000*%
%ADD25R,2.300000X3.500000*%
%ADD26R,0.400000X1.900000*%
%ADD27R,2.000000X1.100000*%
%ADD28R,0.800000X0.800000*%
%ADD29R,0.900000X0.800000*%
%ADD30R,0.700000X0.510000*%
%ADD31R,1.500000X0.550000*%
%ADD32R,0.550000X1.500000*%
%ADD33R,2.000000X3.800000*%
%ADD34R,2.000000X1.500000*%
%ADD35R,0.600000X0.450000*%
%ADD36R,0.900000X1.200000*%
%ADD37R,5.400000X2.900000*%
%ADD38R,2.900000X5.400000*%
%ADD39R,0.800000X0.300000*%
%ADD40R,1.550000X0.600000*%
%ADD41R,1.175000X1.175000*%
%ADD42R,1.100000X1.100000*%
%ADD43R,2.500000X2.550000*%
%ADD44R,1.270000X1.400000*%
%ADD45R,4.800000X4.720000*%
%ADD46C,0.800000*%
%ADD47C,0.250000*%
%ADD48C,1.000000*%
%ADD49C,0.500000*%
%ADD50C,3.000000*%
%ADD51C,2.000000*%
%ADD52C,1.500000*%
G04 APERTURE END LIST*
D10*
X84709000Y-88535000D03*
X84709000Y-90535000D03*
D11*
X132715000Y-45085000D03*
X127635000Y-45085000D03*
X122555000Y-45085000D03*
X112395000Y-45085000D03*
X117475000Y-45085000D03*
D12*
X130175000Y-77470000D03*
X127635000Y-77470000D03*
X125095000Y-77470000D03*
X122555000Y-77470000D03*
X120015000Y-77470000D03*
X117475000Y-77470000D03*
D13*
X121301000Y-116268500D03*
X123301000Y-116268500D03*
X121301000Y-114363500D03*
X123301000Y-114363500D03*
X121301000Y-112458500D03*
X123301000Y-112458500D03*
D14*
X129243000Y-90358000D03*
X129243000Y-89408000D03*
X129243000Y-88458000D03*
X127043000Y-88458000D03*
X127043000Y-90358000D03*
X127043000Y-89408000D03*
D15*
X166505000Y-118154000D03*
X166505000Y-60154000D03*
X143205000Y-60154000D03*
X143205000Y-118154000D03*
D16*
X165735000Y-110744000D03*
D17*
X165735000Y-113284000D03*
D16*
X165735000Y-108204000D03*
X165735000Y-105664000D03*
X165735000Y-103124000D03*
X165735000Y-100584000D03*
X165735000Y-98044000D03*
X165735000Y-95504000D03*
X165735000Y-92964000D03*
X165735000Y-90424000D03*
X165735000Y-87884000D03*
X165735000Y-85344000D03*
X165735000Y-82804000D03*
X165735000Y-80264000D03*
X165735000Y-77724000D03*
X165735000Y-75184000D03*
X165735000Y-72644000D03*
X165735000Y-70104000D03*
X165735000Y-67564000D03*
X165735000Y-65024000D03*
X168275000Y-65024000D03*
X168275000Y-67564000D03*
X168275000Y-70104000D03*
X168275000Y-72644000D03*
X168275000Y-75184000D03*
X168275000Y-77724000D03*
X168275000Y-80264000D03*
X168275000Y-82804000D03*
X168275000Y-85344000D03*
X168275000Y-87884000D03*
X168275000Y-90424000D03*
X168275000Y-92964000D03*
X168275000Y-95504000D03*
X168275000Y-98044000D03*
X168275000Y-100584000D03*
X168275000Y-103124000D03*
X168275000Y-105664000D03*
X168275000Y-108204000D03*
X168275000Y-110744000D03*
X168275000Y-113284000D03*
D13*
X123301000Y-85979000D03*
X121301000Y-85979000D03*
X119110000Y-112395000D03*
X117110000Y-112395000D03*
X127270000Y-85979000D03*
X129270000Y-85979000D03*
D10*
X115189000Y-93234000D03*
X115189000Y-95234000D03*
D13*
X131302000Y-115697000D03*
X129302000Y-115697000D03*
X91932000Y-52070000D03*
X89932000Y-52070000D03*
X96790000Y-52070000D03*
X98790000Y-52070000D03*
D10*
X125095000Y-79645000D03*
X125095000Y-81645000D03*
X122555000Y-79645000D03*
X122555000Y-81645000D03*
X127635000Y-81645000D03*
X127635000Y-79645000D03*
D13*
X126730000Y-51435000D03*
X124730000Y-51435000D03*
X120920000Y-51435000D03*
X122920000Y-51435000D03*
D10*
X103505000Y-51070000D03*
X103505000Y-53070000D03*
X101092000Y-53070000D03*
X101092000Y-51070000D03*
X113665000Y-51070000D03*
X113665000Y-53070000D03*
X111125000Y-53070000D03*
X111125000Y-51070000D03*
X109347000Y-95107000D03*
X109347000Y-93107000D03*
D13*
X113268000Y-93091000D03*
X111268000Y-93091000D03*
X159020000Y-127000000D03*
X161020000Y-127000000D03*
X96409000Y-107696000D03*
X98409000Y-107696000D03*
X101965000Y-107696000D03*
X99965000Y-107696000D03*
D10*
X104521000Y-102997000D03*
X104521000Y-100997000D03*
X104521000Y-104775000D03*
X104521000Y-106775000D03*
D13*
X127651000Y-127000000D03*
X129651000Y-127000000D03*
X117475000Y-126873000D03*
X119475000Y-126873000D03*
X97171000Y-126873000D03*
X99171000Y-126873000D03*
X107315000Y-127000000D03*
X109315000Y-127000000D03*
D11*
X102235000Y-45085000D03*
X107315000Y-45085000D03*
X102235000Y-133350000D03*
X97155000Y-133350000D03*
X112395000Y-133350000D03*
X107315000Y-133350000D03*
X122555000Y-133350000D03*
X117475000Y-133350000D03*
X132715000Y-133350000D03*
X127635000Y-133350000D03*
X105410000Y-77470000D03*
X105410000Y-72390000D03*
X105410000Y-82550000D03*
X105410000Y-87630000D03*
D18*
X104737000Y-115316000D03*
X93637000Y-115316000D03*
D19*
X112903000Y-97094000D03*
X112903000Y-98994000D03*
D20*
X102870000Y-96750000D03*
X102870000Y-93750000D03*
D21*
X103185000Y-125238000D03*
X101285000Y-125238000D03*
X102235000Y-127238000D03*
X113345000Y-125238000D03*
X111445000Y-125238000D03*
X112395000Y-127238000D03*
D22*
X110109000Y-101186000D03*
X108839000Y-101186000D03*
X107569000Y-101186000D03*
X106299000Y-101186000D03*
X106299000Y-106586000D03*
X107569000Y-106586000D03*
X108839000Y-106586000D03*
X110109000Y-106586000D03*
D23*
X126743500Y-115189000D03*
X124843500Y-115189000D03*
X95311000Y-52070000D03*
X93411000Y-52070000D03*
D19*
X130175000Y-81595000D03*
X130175000Y-79695000D03*
D23*
X130490000Y-51435000D03*
X128590000Y-51435000D03*
X145730000Y-51435000D03*
X143830000Y-51435000D03*
X160970000Y-51435000D03*
X159070000Y-51435000D03*
X93411000Y-53975000D03*
X95311000Y-53975000D03*
X89982000Y-53975000D03*
X91882000Y-53975000D03*
D19*
X105537000Y-93157000D03*
X105537000Y-95057000D03*
X107442000Y-95057000D03*
X107442000Y-93157000D03*
D23*
X113218000Y-95250000D03*
X111318000Y-95250000D03*
D19*
X88011000Y-75250000D03*
X88011000Y-77150000D03*
X99314000Y-123256000D03*
X99314000Y-125156000D03*
D23*
X103058000Y-123190000D03*
X101158000Y-123190000D03*
D19*
X109474000Y-123383000D03*
X109474000Y-125283000D03*
D23*
X113345000Y-123317000D03*
X111445000Y-123317000D03*
D19*
X156845000Y-76139000D03*
X156845000Y-78039000D03*
X163195000Y-76769000D03*
X163195000Y-74869000D03*
X93853000Y-103820000D03*
X93853000Y-101920000D03*
X93853000Y-106995000D03*
X93853000Y-105095000D03*
X91821000Y-106995000D03*
X91821000Y-105095000D03*
X91821000Y-103820000D03*
X91821000Y-101920000D03*
D23*
X117160000Y-114300000D03*
X119060000Y-114300000D03*
D24*
X96414000Y-105791000D03*
X102214000Y-105791000D03*
X96414000Y-104521000D03*
X102214000Y-104521000D03*
X96414000Y-103251000D03*
X102214000Y-103251000D03*
X96414000Y-101981000D03*
X102214000Y-101981000D03*
D25*
X99314000Y-103886000D03*
D26*
X124593500Y-113093500D03*
X125793500Y-113093500D03*
X126993500Y-113093500D03*
D13*
X141970000Y-51435000D03*
X139970000Y-51435000D03*
X136160000Y-51435000D03*
X138160000Y-51435000D03*
X157210000Y-51435000D03*
X155210000Y-51435000D03*
X151400000Y-51435000D03*
X153400000Y-51435000D03*
D10*
X90551000Y-96758000D03*
X90551000Y-94758000D03*
X115189000Y-98917000D03*
X115189000Y-96917000D03*
D27*
X117410000Y-116205000D03*
D28*
X119310000Y-116205000D03*
D11*
X86995000Y-45085000D03*
X81915000Y-45085000D03*
X92075000Y-45085000D03*
X97155000Y-45085000D03*
X147955000Y-45085000D03*
X142875000Y-45085000D03*
X137795000Y-45085000D03*
X163195000Y-45085000D03*
X158115000Y-45085000D03*
X153035000Y-45085000D03*
D29*
X87487000Y-54036000D03*
X87487000Y-52136000D03*
X85487000Y-53086000D03*
D30*
X83075000Y-54671000D03*
X83075000Y-53721000D03*
X83075000Y-52771000D03*
X80755000Y-52771000D03*
X80755000Y-53721000D03*
X80755000Y-54671000D03*
D19*
X108585000Y-53020000D03*
X108585000Y-51120000D03*
X106045000Y-53020000D03*
X106045000Y-51120000D03*
X118745000Y-53020000D03*
X118745000Y-51120000D03*
X116205000Y-53020000D03*
X116205000Y-51120000D03*
D23*
X80965000Y-56769000D03*
X82865000Y-56769000D03*
D14*
X121201000Y-88458000D03*
X121201000Y-89408000D03*
X121201000Y-90358000D03*
X123401000Y-90358000D03*
X123401000Y-88458000D03*
X123401000Y-89408000D03*
D31*
X118284000Y-95600000D03*
X118284000Y-96400000D03*
X118284000Y-97200000D03*
X118284000Y-98000000D03*
X118284000Y-98800000D03*
X118284000Y-99600000D03*
X118284000Y-100400000D03*
X118284000Y-101200000D03*
X118284000Y-102000000D03*
X118284000Y-102800000D03*
X118284000Y-103600000D03*
X118284000Y-104400000D03*
X118284000Y-105200000D03*
X118284000Y-106000000D03*
X118284000Y-106800000D03*
X118284000Y-107600000D03*
D32*
X119984000Y-109300000D03*
X120784000Y-109300000D03*
X121584000Y-109300000D03*
X122384000Y-109300000D03*
X123184000Y-109300000D03*
X123984000Y-109300000D03*
X124784000Y-109300000D03*
X125584000Y-109300000D03*
X126384000Y-109300000D03*
X127184000Y-109300000D03*
X127984000Y-109300000D03*
X128784000Y-109300000D03*
X129584000Y-109300000D03*
X130384000Y-109300000D03*
X131184000Y-109300000D03*
X131984000Y-109300000D03*
D31*
X133684000Y-107600000D03*
X133684000Y-106800000D03*
X133684000Y-106000000D03*
X133684000Y-105200000D03*
X133684000Y-104400000D03*
X133684000Y-103600000D03*
X133684000Y-102800000D03*
X133684000Y-102000000D03*
X133684000Y-101200000D03*
X133684000Y-100400000D03*
X133684000Y-99600000D03*
X133684000Y-98800000D03*
X133684000Y-98000000D03*
X133684000Y-97200000D03*
X133684000Y-96400000D03*
X133684000Y-95600000D03*
D32*
X131984000Y-93900000D03*
X131184000Y-93900000D03*
X130384000Y-93900000D03*
X129584000Y-93900000D03*
X128784000Y-93900000D03*
X127984000Y-93900000D03*
X127184000Y-93900000D03*
X126384000Y-93900000D03*
X125584000Y-93900000D03*
X124784000Y-93900000D03*
X123984000Y-93900000D03*
X123184000Y-93900000D03*
X122384000Y-93900000D03*
X121584000Y-93900000D03*
X120784000Y-93900000D03*
X119984000Y-93900000D03*
D33*
X100051000Y-95631000D03*
D34*
X93751000Y-95631000D03*
X93751000Y-97931000D03*
X93751000Y-93331000D03*
D10*
X83947000Y-77200000D03*
X83947000Y-75200000D03*
X85852000Y-77200000D03*
X85852000Y-75200000D03*
X98171000Y-71707500D03*
X98171000Y-73707500D03*
X88011000Y-71390000D03*
X88011000Y-73390000D03*
D13*
X164830000Y-127000000D03*
X162830000Y-127000000D03*
X87138000Y-126238000D03*
X89138000Y-126238000D03*
D35*
X88299000Y-121920000D03*
X86199000Y-121920000D03*
D36*
X84708000Y-123825000D03*
X81408000Y-123825000D03*
D11*
X153035000Y-133350000D03*
X158115000Y-133350000D03*
X163195000Y-133350000D03*
X81915000Y-133350000D03*
X86995000Y-133350000D03*
X92075000Y-133350000D03*
D37*
X92710000Y-79605000D03*
X92710000Y-89305000D03*
D38*
X95147000Y-63373000D03*
X85447000Y-63373000D03*
D20*
X98171000Y-64603500D03*
X98171000Y-67603500D03*
X98171000Y-62587000D03*
X98171000Y-59587000D03*
D19*
X98171000Y-75250000D03*
X98171000Y-77150000D03*
D23*
X155260000Y-127000000D03*
X157160000Y-127000000D03*
X84389000Y-113411000D03*
X82489000Y-113411000D03*
D19*
X89916000Y-110302000D03*
X89916000Y-112202000D03*
D23*
X86299000Y-123825000D03*
X88199000Y-123825000D03*
D39*
X160375000Y-96024000D03*
X160375000Y-96524000D03*
X160375000Y-97024000D03*
X160375000Y-97524000D03*
X163475000Y-97524000D03*
X163475000Y-97024000D03*
X163475000Y-96524000D03*
X163475000Y-96024000D03*
X158470000Y-75704000D03*
X158470000Y-76204000D03*
X158470000Y-76704000D03*
X158470000Y-77204000D03*
X161570000Y-77204000D03*
X161570000Y-76704000D03*
X161570000Y-76204000D03*
X161570000Y-75704000D03*
X163475000Y-92444000D03*
X163475000Y-91944000D03*
X163475000Y-91444000D03*
X163475000Y-90944000D03*
X160375000Y-90944000D03*
X160375000Y-91444000D03*
X160375000Y-91944000D03*
X160375000Y-92444000D03*
D40*
X95584500Y-76406500D03*
X95584500Y-75136500D03*
X95584500Y-73866500D03*
X95584500Y-72596500D03*
X90184500Y-72596500D03*
X90184500Y-73866500D03*
X90184500Y-75136500D03*
X90184500Y-76406500D03*
D41*
X92297000Y-73914000D03*
X92297000Y-75089000D03*
X93472000Y-73914000D03*
X93472000Y-75089000D03*
D22*
X89662000Y-114394000D03*
X88392000Y-114394000D03*
X87122000Y-114394000D03*
X85852000Y-114394000D03*
X85852000Y-119794000D03*
X87122000Y-119794000D03*
X88392000Y-119794000D03*
X89662000Y-119794000D03*
D42*
X84839000Y-86360000D03*
X82039000Y-86360000D03*
D19*
X88011000Y-112202000D03*
X88011000Y-110302000D03*
D43*
X87249000Y-98283000D03*
X87249000Y-93233000D03*
D42*
X84331000Y-98425000D03*
X81531000Y-98425000D03*
X84839000Y-83820000D03*
X82039000Y-83820000D03*
X85852000Y-70736000D03*
X85852000Y-73536000D03*
D14*
X129202000Y-111889500D03*
X129202000Y-112839500D03*
X129202000Y-113789500D03*
X131402000Y-113789500D03*
X131402000Y-111889500D03*
X131402000Y-112839500D03*
D13*
X149590000Y-127000000D03*
X147590000Y-127000000D03*
X143780000Y-127000000D03*
X145780000Y-127000000D03*
D11*
X137795000Y-133350000D03*
X142875000Y-133350000D03*
X147955000Y-133350000D03*
D23*
X141920000Y-127000000D03*
X140020000Y-127000000D03*
D21*
X123505000Y-125238000D03*
X121605000Y-125238000D03*
X122555000Y-127238000D03*
X133665000Y-125238000D03*
X131765000Y-125238000D03*
X132715000Y-127238000D03*
D19*
X119761000Y-123256000D03*
X119761000Y-125156000D03*
D23*
X123505000Y-123444000D03*
X121605000Y-123444000D03*
D19*
X129794000Y-123383000D03*
X129794000Y-125283000D03*
D23*
X133665000Y-123317000D03*
X131765000Y-123317000D03*
D44*
X82428000Y-104291000D03*
D45*
X86228000Y-103251000D03*
D44*
X82428000Y-102211000D03*
D46*
X99314000Y-104902000D03*
X163474999Y-90043000D03*
X160401000Y-90043000D03*
X160401000Y-98425000D03*
X129921000Y-130175000D03*
X109245008Y-130149992D03*
X119481992Y-130149992D03*
X99085008Y-130149992D03*
X99171000Y-129048000D03*
X119475000Y-129064000D03*
X109315000Y-129064000D03*
X129651000Y-129143000D03*
X94488000Y-108077000D03*
X99250500Y-103949500D03*
X99314000Y-102870000D03*
X91821000Y-100838000D03*
X90663000Y-93233000D03*
X110363000Y-93091000D03*
X92297000Y-75089000D03*
X93472000Y-75089000D03*
X93472000Y-73914000D03*
X92329000Y-73914000D03*
X86106000Y-74422000D03*
X98171000Y-68580000D03*
X98171000Y-58610500D03*
X85852000Y-118300500D03*
X124015500Y-107823000D03*
X116205000Y-112395000D03*
X130048000Y-89408000D03*
X129286000Y-86905000D03*
X121285000Y-86868000D03*
X120396000Y-89408000D03*
X130211199Y-91092858D03*
X115189000Y-94488000D03*
X120396000Y-92456000D03*
X158496000Y-77978000D03*
X100330000Y-63500000D03*
X153035000Y-70485000D03*
X153035000Y-110490000D03*
X153035000Y-106045000D03*
X125095000Y-70485000D03*
X132715000Y-70485000D03*
X147955000Y-70485000D03*
X161925000Y-70485000D03*
X118745000Y-70485000D03*
X110617000Y-70358000D03*
X138938000Y-70484996D03*
X127651000Y-121374000D03*
X107315000Y-121374000D03*
X96431000Y-121374000D03*
X117310000Y-121374000D03*
X112395000Y-101981000D03*
X117094000Y-101981000D03*
X149733000Y-84074000D03*
X131191000Y-90170000D03*
X119888000Y-103632000D03*
X159131000Y-97917000D03*
X96901000Y-55118000D03*
X139573000Y-54991000D03*
X104775000Y-97155000D03*
X126365000Y-97155000D03*
X89789000Y-104902000D03*
X89789000Y-107315000D03*
X126238000Y-89408000D03*
X127254000Y-86995000D03*
X123317000Y-86868000D03*
X124206000Y-89408000D03*
X129921000Y-92202000D03*
X159004000Y-92202000D03*
X156845000Y-108458000D03*
X122301000Y-107696000D03*
X154940000Y-112395000D03*
X129921000Y-111887000D03*
X89074500Y-75136500D03*
X118745000Y-109347000D03*
X89916000Y-111506000D03*
X127983995Y-110549995D03*
X129115395Y-110617908D03*
X85852000Y-115824000D03*
X159004000Y-91186000D03*
X119888000Y-98298000D03*
X119888000Y-96055000D03*
X159258000Y-95758000D03*
X118364000Y-94625000D03*
X118364000Y-89281000D03*
X128270000Y-114300000D03*
X139065000Y-114300000D03*
X116967000Y-94625000D03*
D47*
X163475000Y-98324000D02*
X163475000Y-97524000D01*
X165735000Y-100584000D02*
X163475000Y-98324000D01*
X161570000Y-76704000D02*
X161570000Y-77204000D01*
X161820000Y-77204000D02*
X161570000Y-77204000D01*
X163980001Y-79364001D02*
X161820000Y-77204000D01*
X164835001Y-79364001D02*
X163980001Y-79364001D01*
X165735000Y-80264000D02*
X164835001Y-79364001D01*
X163475000Y-90944000D02*
X163475000Y-90043001D01*
X163475000Y-90043001D02*
X163474999Y-90043000D01*
X160375000Y-90944000D02*
X160375000Y-90069000D01*
X160375000Y-90069000D02*
X160401000Y-90043000D01*
X160375000Y-97524000D02*
X160375000Y-98399000D01*
X160375000Y-98399000D02*
X160401000Y-98425000D01*
X129329000Y-112966500D02*
X129202000Y-112839500D01*
X129921000Y-112966500D02*
X129329000Y-112966500D01*
X130096989Y-113142489D02*
X129921000Y-112966500D01*
X130096989Y-114586511D02*
X130096989Y-113142489D01*
X129302000Y-115506500D02*
X129302000Y-115381500D01*
X129302000Y-115381500D02*
X130096989Y-114586511D01*
D48*
X93653000Y-93233000D02*
X93751000Y-93331000D01*
X90576000Y-93233000D02*
X90663000Y-93233000D01*
X90551000Y-94758000D02*
X90551000Y-93258000D01*
X90551000Y-93258000D02*
X90576000Y-93233000D01*
X90663000Y-93233000D02*
X93653000Y-93233000D01*
D49*
X85852000Y-121573000D02*
X86199000Y-121920000D01*
X85852000Y-119794000D02*
X85852000Y-121573000D01*
X89888000Y-126238000D02*
X89138000Y-126238000D01*
X92075000Y-128425000D02*
X89888000Y-126238000D01*
X92075000Y-133350000D02*
X92075000Y-128425000D01*
X89596000Y-93157000D02*
X89520000Y-93233000D01*
D48*
X87249000Y-93233000D02*
X89520000Y-93233000D01*
X89520000Y-93233000D02*
X90663000Y-93233000D01*
D49*
X109297000Y-93157000D02*
X109347000Y-93107000D01*
X107442000Y-93157000D02*
X109297000Y-93157000D01*
X109363000Y-93091000D02*
X109347000Y-93107000D01*
X111268000Y-93091000D02*
X110363000Y-93091000D01*
X109315000Y-130080000D02*
X109245008Y-130149992D01*
X119475000Y-130143000D02*
X119481992Y-130149992D01*
X99171000Y-130064000D02*
X99085008Y-130149992D01*
X99171000Y-129048000D02*
X99171000Y-130064000D01*
X99171000Y-126873000D02*
X99171000Y-129048000D01*
X119475000Y-129064000D02*
X119475000Y-130143000D01*
X119475000Y-126873000D02*
X119475000Y-129064000D01*
X109315000Y-129064000D02*
X109315000Y-130080000D01*
X109315000Y-127000000D02*
X109315000Y-129064000D01*
X129921000Y-129413000D02*
X129651000Y-129143000D01*
X129921000Y-130175000D02*
X129921000Y-129413000D01*
X129651000Y-127000000D02*
X129651000Y-129143000D01*
X121523000Y-125156000D02*
X121605000Y-125238000D01*
X119761000Y-125156000D02*
X121523000Y-125156000D01*
X111400000Y-125283000D02*
X111445000Y-125238000D01*
X109474000Y-125283000D02*
X111400000Y-125283000D01*
X101203000Y-125156000D02*
X101285000Y-125238000D01*
X99314000Y-125156000D02*
X101203000Y-125156000D01*
X131720000Y-125283000D02*
X131765000Y-125238000D01*
X129794000Y-125283000D02*
X131720000Y-125283000D01*
X109855000Y-101186000D02*
X108585000Y-101186000D01*
X99953000Y-100997000D02*
X99314000Y-101636000D01*
X104521000Y-100997000D02*
X99953000Y-100997000D01*
X107569000Y-101186000D02*
X108839000Y-101186000D01*
X107569000Y-100570998D02*
X107569000Y-101186000D01*
X106959001Y-99960999D02*
X107569000Y-100570998D01*
X105682001Y-99960999D02*
X106959001Y-99960999D01*
X104646000Y-100997000D02*
X105682001Y-99960999D01*
X104521000Y-100997000D02*
X104646000Y-100997000D01*
X99314000Y-101636000D02*
X99314000Y-101981000D01*
X96414000Y-101981000D02*
X99314000Y-101981000D01*
X99314000Y-101981000D02*
X99314000Y-102870000D01*
X98409000Y-104791000D02*
X99250500Y-103949500D01*
X98409000Y-107442000D02*
X98409000Y-104791000D01*
X99965000Y-104537000D02*
X99314000Y-103886000D01*
X99965000Y-107442000D02*
X99965000Y-104537000D01*
X93853000Y-106995000D02*
X93853000Y-107442000D01*
X93853000Y-107442000D02*
X94488000Y-108077000D01*
X99250500Y-103949500D02*
X99314000Y-103886000D01*
X99314000Y-102870000D02*
X99314000Y-103886000D01*
X91821000Y-102047000D02*
X91821000Y-100838000D01*
X110363000Y-93091000D02*
X109363000Y-93091000D01*
X95584500Y-76406500D02*
X95584500Y-75136500D01*
X93519500Y-75136500D02*
X93472000Y-75089000D01*
X95584500Y-75136500D02*
X93519500Y-75136500D01*
X93472000Y-73914000D02*
X92329000Y-73914000D01*
X92297000Y-73914000D02*
X92297000Y-75089000D01*
X93472000Y-75089000D02*
X93472000Y-73914000D01*
X92329000Y-73914000D02*
X92297000Y-73914000D01*
X86106000Y-75200000D02*
X86106000Y-74422000D01*
X86106000Y-74422000D02*
X86106000Y-73663000D01*
X97427500Y-76406500D02*
X98171000Y-77150000D01*
X95584500Y-76406500D02*
X97427500Y-76406500D01*
X98171000Y-67603500D02*
X98171000Y-68580000D01*
X98171000Y-59587000D02*
X98171000Y-58610500D01*
X85852000Y-119794000D02*
X85852000Y-118300500D01*
X123984000Y-109300000D02*
X123984000Y-107854500D01*
D47*
X123984000Y-107854500D02*
X124015500Y-107823000D01*
D49*
X113125000Y-53070000D02*
X111125000Y-51070000D01*
X113665000Y-53070000D02*
X113125000Y-53070000D01*
X111125000Y-46355000D02*
X112395000Y-45085000D01*
X111125000Y-51070000D02*
X111125000Y-46355000D01*
D48*
X102570000Y-93750000D02*
X102870000Y-93750000D01*
X101070000Y-92250000D02*
X102570000Y-93750000D01*
X96832000Y-92250000D02*
X101070000Y-92250000D01*
X95751000Y-93331000D02*
X96832000Y-92250000D01*
X93751000Y-93331000D02*
X95751000Y-93331000D01*
D49*
X127635000Y-79645000D02*
X127635000Y-77470000D01*
X125095000Y-81645000D02*
X122555000Y-81645000D01*
X127095000Y-79645000D02*
X125095000Y-81645000D01*
X127635000Y-79645000D02*
X127095000Y-79645000D01*
D47*
X117110000Y-112395000D02*
X116205000Y-112395000D01*
D49*
X123301000Y-115586000D02*
X123301000Y-112458500D01*
X123301000Y-116268500D02*
X123301000Y-115586000D01*
X123190000Y-112347500D02*
X123301000Y-112458500D01*
X123190000Y-111760000D02*
X123190000Y-112347500D01*
X123984000Y-109300000D02*
X123984000Y-110966000D01*
X123984000Y-110966000D02*
X123190000Y-111760000D01*
X162830000Y-127000000D02*
X161020000Y-127000000D01*
X162830000Y-132985000D02*
X163195000Y-133350000D01*
X162830000Y-127000000D02*
X162830000Y-132985000D01*
X145780000Y-127000000D02*
X147590000Y-127000000D01*
X147955000Y-127365000D02*
X147590000Y-127000000D01*
X147955000Y-133350000D02*
X147955000Y-127365000D01*
X138160000Y-51435000D02*
X139970000Y-51435000D01*
X137795000Y-51070000D02*
X138160000Y-51435000D01*
X137795000Y-45085000D02*
X137795000Y-51070000D01*
X153400000Y-51435000D02*
X155210000Y-51435000D01*
X153035000Y-51070000D02*
X153400000Y-51435000D01*
X153035000Y-45085000D02*
X153035000Y-51070000D01*
X124730000Y-51435000D02*
X122920000Y-51435000D01*
X122555000Y-51070000D02*
X122920000Y-51435000D01*
X122555000Y-45085000D02*
X122555000Y-51070000D01*
X83947000Y-75200000D02*
X85852000Y-75200000D01*
D48*
X84709000Y-90693000D02*
X87249000Y-93233000D01*
X84709000Y-90535000D02*
X84709000Y-90693000D01*
D47*
X129243000Y-89408000D02*
X130048000Y-89408000D01*
X129270000Y-85979000D02*
X129270000Y-86889000D01*
X129270000Y-86889000D02*
X129286000Y-86905000D01*
X121301000Y-85979000D02*
X121301000Y-86852000D01*
X121301000Y-86852000D02*
X121285000Y-86868000D01*
X121201000Y-89408000D02*
X120396000Y-89408000D01*
X120784000Y-93900000D02*
X120784000Y-92957000D01*
X120784000Y-93138000D02*
X120784000Y-92957000D01*
X115189000Y-95234000D02*
X115189000Y-94488000D01*
D49*
X98790000Y-46720000D02*
X97155000Y-45085000D01*
X89932000Y-48022000D02*
X86995000Y-45085000D01*
X89932000Y-52070000D02*
X89932000Y-48022000D01*
X98790000Y-52070000D02*
X98790000Y-51197000D01*
X98790000Y-51197000D02*
X98790000Y-46720000D01*
X103092000Y-53070000D02*
X101092000Y-51070000D01*
X103505000Y-53070000D02*
X103092000Y-53070000D01*
X101092000Y-46228000D02*
X102235000Y-45085000D01*
X101092000Y-51070000D02*
X101092000Y-46228000D01*
X89866000Y-52136000D02*
X89932000Y-52070000D01*
X87487000Y-52136000D02*
X89866000Y-52136000D01*
X91837000Y-53975000D02*
X89932000Y-52070000D01*
X91882000Y-53975000D02*
X91837000Y-53975000D01*
D47*
X128784000Y-92265996D02*
X129957138Y-91092858D01*
X128784000Y-93900000D02*
X128784000Y-92265996D01*
X129957138Y-91092858D02*
X130211199Y-91092858D01*
D49*
X115189000Y-96917000D02*
X115189000Y-95234000D01*
D47*
X120795999Y-92945001D02*
X120795999Y-92855999D01*
X120784000Y-92957000D02*
X120795999Y-92945001D01*
X120795999Y-92855999D02*
X120396000Y-92456000D01*
X158470000Y-77204000D02*
X158470000Y-77952000D01*
X158470000Y-77952000D02*
X158496000Y-77978000D01*
D49*
X129651000Y-127000000D02*
X129651000Y-125426000D01*
X129839000Y-125238000D02*
X131765000Y-125238000D01*
X129651000Y-125426000D02*
X129839000Y-125238000D01*
X119679000Y-125238000D02*
X121605000Y-125238000D01*
X119475000Y-126873000D02*
X119475000Y-125442000D01*
X119475000Y-125442000D02*
X119679000Y-125238000D01*
X109519000Y-125238000D02*
X111445000Y-125238000D01*
X109315000Y-127000000D02*
X109315000Y-125442000D01*
X109315000Y-125442000D02*
X109519000Y-125238000D01*
X99232000Y-125238000D02*
X101285000Y-125238000D01*
X99171000Y-126873000D02*
X99171000Y-125299000D01*
X99171000Y-125299000D02*
X99232000Y-125238000D01*
X124301000Y-116268500D02*
X123301000Y-116268500D01*
X124321501Y-116289001D02*
X124301000Y-116268500D01*
X128302000Y-115697000D02*
X127709999Y-116289001D01*
X129302000Y-115697000D02*
X128302000Y-115697000D01*
D47*
X125793500Y-116268500D02*
X125772999Y-116289001D01*
D49*
X127709999Y-116289001D02*
X125772999Y-116289001D01*
D47*
X125793500Y-113093500D02*
X125793500Y-116268500D01*
D49*
X125772999Y-116289001D02*
X124321501Y-116289001D01*
X95584500Y-64064500D02*
X95147000Y-63627000D01*
X95584500Y-72596500D02*
X95584500Y-64064500D01*
D48*
X95147000Y-63627000D02*
X97097000Y-63627000D01*
X97097000Y-63627000D02*
X98171000Y-63627000D01*
D49*
X98171000Y-62587000D02*
X98171000Y-63627000D01*
X98171000Y-63627000D02*
X98171000Y-64476500D01*
X125095000Y-77470000D02*
X125095000Y-79645000D01*
X122555000Y-79645000D02*
X125095000Y-79645000D01*
D48*
X98171000Y-63627000D02*
X100203000Y-63627000D01*
X100203000Y-63627000D02*
X100330000Y-63500000D01*
X153035000Y-132080000D02*
X153035000Y-133350000D01*
X153035000Y-110490000D02*
X153035000Y-132080000D01*
X153035000Y-70485000D02*
X153035000Y-106045000D01*
X153035000Y-106045000D02*
X153035000Y-110490000D01*
X125095000Y-77470000D02*
X125095000Y-70485000D01*
D49*
X132715000Y-45085000D02*
X132715000Y-70485000D01*
X147955000Y-45085000D02*
X147955000Y-70485000D01*
X161945001Y-70464999D02*
X161925000Y-70485000D01*
X163195000Y-45085000D02*
X161945001Y-46334999D01*
X161945001Y-46334999D02*
X161945001Y-70464999D01*
X118745000Y-53020000D02*
X118745000Y-70485000D01*
X110217001Y-69958001D02*
X110617000Y-70358000D01*
X108585000Y-68326000D02*
X110217001Y-69958001D01*
X108585000Y-53020000D02*
X108585000Y-68326000D01*
D48*
X138538001Y-70884995D02*
X138938000Y-70484996D01*
X137795000Y-133350000D02*
X137795000Y-71627996D01*
X137795000Y-71627996D02*
X138538001Y-70884995D01*
D49*
X107381000Y-94996000D02*
X107442000Y-95057000D01*
X105852000Y-94996000D02*
X107381000Y-94996000D01*
X109297000Y-95057000D02*
X109347000Y-95107000D01*
X107442000Y-95057000D02*
X109297000Y-95057000D01*
X111175000Y-95107000D02*
X111318000Y-95250000D01*
X109347000Y-95107000D02*
X111175000Y-95107000D01*
D47*
X81930010Y-91424990D02*
X81915000Y-91440000D01*
D50*
X81915000Y-133350000D02*
X81915000Y-91440000D01*
D51*
X82039000Y-91316000D02*
X82039000Y-86360000D01*
X81915000Y-91440000D02*
X82039000Y-91316000D01*
X82039000Y-83820000D02*
X82039000Y-86360000D01*
X82039000Y-83820000D02*
X82039000Y-83359998D01*
X104160001Y-78719999D02*
X105410000Y-77470000D01*
X99441000Y-83439000D02*
X104160001Y-78719999D01*
D49*
X99441000Y-86211000D02*
X99441000Y-83439000D01*
X105537000Y-92307000D02*
X99441000Y-86211000D01*
X105537000Y-93157000D02*
X105537000Y-92307000D01*
X80755000Y-52771000D02*
X80289998Y-52771000D01*
X80289998Y-52771000D02*
X79248000Y-53812998D01*
X79375000Y-56769000D02*
X79248000Y-56896000D01*
X80965000Y-56769000D02*
X79375000Y-56769000D01*
D52*
X79248000Y-53812998D02*
X79248000Y-56896000D01*
D51*
X88646000Y-83439000D02*
X99441000Y-83439000D01*
X86233000Y-81026000D02*
X88646000Y-83439000D01*
X82931000Y-81026000D02*
X86233000Y-81026000D01*
X82039000Y-83359998D02*
X82039000Y-81918000D01*
X82039000Y-81918000D02*
X82931000Y-81026000D01*
D52*
X79248000Y-78994000D02*
X82039000Y-81785000D01*
X79248000Y-56896000D02*
X79248000Y-78994000D01*
D49*
X104267000Y-103251000D02*
X104521000Y-102997000D01*
X102214000Y-103251000D02*
X104267000Y-103251000D01*
X110109000Y-106586000D02*
X108839000Y-106586000D01*
X108839000Y-106586000D02*
X107569000Y-106586000D01*
X107569000Y-106586000D02*
X106299000Y-106586000D01*
X106299000Y-106586000D02*
X104824000Y-106586000D01*
X103198000Y-106775000D02*
X102214000Y-105791000D01*
X104521000Y-106775000D02*
X103198000Y-106775000D01*
X107531000Y-106624000D02*
X107569000Y-106586000D01*
X104737000Y-106991000D02*
X104521000Y-106775000D01*
X104737000Y-115316000D02*
X104737000Y-106991000D01*
X104267000Y-104521000D02*
X104521000Y-104775000D01*
X102214000Y-104521000D02*
X104267000Y-104521000D01*
X107315000Y-127000000D02*
X107315000Y-133350000D01*
X127651000Y-133334000D02*
X127635000Y-133350000D01*
X127651000Y-127000000D02*
X127651000Y-133334000D01*
X117475000Y-126873000D02*
X117475000Y-133350000D01*
X97171000Y-133334000D02*
X97155000Y-133350000D01*
X97171000Y-126873000D02*
X97171000Y-133334000D01*
X96431000Y-126133000D02*
X97171000Y-126873000D01*
X96431000Y-121374000D02*
X96431000Y-126133000D01*
X107315000Y-126873000D02*
X107315000Y-121374000D01*
X127651000Y-127000000D02*
X127651000Y-121374000D01*
X93637000Y-118316000D02*
X96431000Y-121110000D01*
X96431000Y-121110000D02*
X96431000Y-121374000D01*
X93637000Y-115316000D02*
X93637000Y-118316000D01*
X91821000Y-107315000D02*
X91821000Y-106995000D01*
X93637000Y-115316000D02*
X93637000Y-109131000D01*
X93637000Y-109131000D02*
X91821000Y-107315000D01*
X117475000Y-121539000D02*
X117310000Y-121374000D01*
X117475000Y-126873000D02*
X117475000Y-121539000D01*
X103185000Y-123317000D02*
X103058000Y-123190000D01*
X103185000Y-125238000D02*
X103185000Y-123317000D01*
X113345000Y-125238000D02*
X113345000Y-123317000D01*
X105504000Y-101981000D02*
X106299000Y-101186000D01*
X102214000Y-101981000D02*
X105504000Y-101981000D01*
D47*
X126993500Y-114939000D02*
X126743500Y-115189000D01*
X126993500Y-113093500D02*
X126993500Y-114939000D01*
X125584000Y-110934000D02*
X125584000Y-110300000D01*
X125584000Y-110300000D02*
X125584000Y-109300000D01*
X126993500Y-112343500D02*
X125584000Y-110934000D01*
X126993500Y-113093500D02*
X126993500Y-112343500D01*
X124593500Y-111893500D02*
X124593500Y-113093500D01*
X124784000Y-109300000D02*
X124784000Y-109912000D01*
X124593500Y-114939000D02*
X124843500Y-115189000D01*
X124593500Y-113093500D02*
X124593500Y-114939000D01*
X124784000Y-111703000D02*
X124593500Y-111893500D01*
X124784000Y-109300000D02*
X124784000Y-111703000D01*
D49*
X130175000Y-77470000D02*
X130175000Y-79695000D01*
X112395000Y-101586998D02*
X112395000Y-101981000D01*
X110068991Y-99260989D02*
X112395000Y-101586998D01*
X96812011Y-99260989D02*
X110068991Y-99260989D01*
X93853000Y-101920000D02*
X94153000Y-101920000D01*
X94153000Y-101920000D02*
X96812011Y-99260989D01*
X118284000Y-102000000D02*
X117113000Y-102000000D01*
X117113000Y-102000000D02*
X117094000Y-101981000D01*
X96414000Y-104521000D02*
X93853000Y-104521000D01*
X93853000Y-105095000D02*
X93853000Y-104521000D01*
X93853000Y-104521000D02*
X93853000Y-103947000D01*
X94863001Y-103019999D02*
X92842999Y-103019999D01*
X94953001Y-103109999D02*
X94863001Y-103019999D01*
X91821000Y-104041998D02*
X91821000Y-105095000D01*
X96414000Y-103251000D02*
X94953001Y-103251000D01*
X92842999Y-103019999D02*
X91821000Y-104041998D01*
X94953001Y-103251000D02*
X94953001Y-103109999D01*
D47*
X116064000Y-93234000D02*
X115189000Y-93234000D01*
X117567001Y-91730999D02*
X116064000Y-93234000D01*
X120939589Y-91730999D02*
X117567001Y-91730999D01*
X121584000Y-92375410D02*
X120939589Y-91730999D01*
X121584000Y-93900000D02*
X121584000Y-92375410D01*
D49*
X92186000Y-52070000D02*
X93411000Y-52070000D01*
X92075000Y-51927000D02*
X91932000Y-52070000D01*
X92075000Y-45085000D02*
X92075000Y-51927000D01*
X160120000Y-52585000D02*
X160970000Y-51735000D01*
X152425000Y-52585000D02*
X160120000Y-52585000D01*
X151400000Y-51560000D02*
X152425000Y-52585000D01*
X160970000Y-51735000D02*
X160970000Y-51435000D01*
X151400000Y-51435000D02*
X151400000Y-51560000D01*
X152425000Y-52585000D02*
X149860000Y-55150000D01*
X149860000Y-55150000D02*
X149860000Y-83947000D01*
X149860000Y-83947000D02*
X149733000Y-84074000D01*
D47*
X131003000Y-90358000D02*
X131191000Y-90170000D01*
X129243000Y-90358000D02*
X131003000Y-90358000D01*
X127984000Y-93900000D02*
X127984000Y-92361000D01*
X129243000Y-91102000D02*
X129243000Y-90358000D01*
X127984000Y-92361000D02*
X129243000Y-91102000D01*
D49*
X115905000Y-53020000D02*
X116205000Y-53020000D01*
X114904999Y-54020001D02*
X115905000Y-53020000D01*
X112200001Y-54020001D02*
X114904999Y-54020001D01*
X111250000Y-53070000D02*
X112200001Y-54020001D01*
X111125000Y-53070000D02*
X111250000Y-53070000D01*
D47*
X124931001Y-89756001D02*
X124931001Y-83910001D01*
X124784000Y-93402000D02*
X124931001Y-93254999D01*
X124784000Y-93900000D02*
X124784000Y-93402000D01*
X123401000Y-90358000D02*
X124907000Y-90358000D01*
X124931001Y-90333999D02*
X124931001Y-89756001D01*
X124907000Y-90358000D02*
X124931001Y-90333999D01*
X124931001Y-92492999D02*
X124784000Y-92640000D01*
X124784000Y-92640000D02*
X124784000Y-93900000D01*
X124931001Y-92492999D02*
X124931001Y-89756001D01*
D49*
X114904999Y-77046001D02*
X120789998Y-82931000D01*
X114904999Y-54020001D02*
X114904999Y-77046001D01*
X124130186Y-82931000D02*
X124931001Y-83731815D01*
X124931001Y-83731815D02*
X124931001Y-83910001D01*
X120789998Y-82931000D02*
X124130186Y-82931000D01*
X127635000Y-45085000D02*
X127635000Y-51435000D01*
X126730000Y-51435000D02*
X127635000Y-51435000D01*
X127635000Y-51435000D02*
X128590000Y-51435000D01*
D47*
X122621000Y-88458000D02*
X123401000Y-88458000D01*
X122545999Y-88533001D02*
X122621000Y-88458000D01*
X122545999Y-90943001D02*
X122545999Y-88533001D01*
X123984000Y-92381002D02*
X122545999Y-90943001D01*
X123984000Y-93900000D02*
X123984000Y-93143002D01*
X123984000Y-92381002D02*
X123984000Y-93143002D01*
X124333000Y-87731000D02*
X124333000Y-84455000D01*
X123401000Y-88458000D02*
X123606000Y-88458000D01*
X123606000Y-88458000D02*
X124333000Y-87731000D01*
D49*
X106045000Y-53467000D02*
X106045000Y-53020000D01*
X101378000Y-54356000D02*
X106045000Y-54356000D01*
X101092000Y-54070000D02*
X101378000Y-54356000D01*
X101092000Y-53070000D02*
X101092000Y-54070000D01*
X106045000Y-54356000D02*
X106045000Y-53467000D01*
X120904000Y-84455000D02*
X106045000Y-69596000D01*
X124333000Y-84455000D02*
X120904000Y-84455000D01*
X106045000Y-69596000D02*
X106045000Y-54356000D01*
X103555000Y-51120000D02*
X103505000Y-51070000D01*
X106995000Y-51120000D02*
X103555000Y-51120000D01*
X107315000Y-50805000D02*
X107630000Y-51120000D01*
X108585000Y-51120000D02*
X107630000Y-51120000D01*
X107630000Y-51120000D02*
X106995000Y-51120000D01*
X107315000Y-50800000D02*
X106995000Y-51120000D01*
X107315000Y-45085000D02*
X107315000Y-50800000D01*
D47*
X113218000Y-93141000D02*
X113268000Y-93091000D01*
D49*
X113218000Y-95250000D02*
X113218000Y-93141000D01*
X120421000Y-90358000D02*
X121201000Y-90358000D01*
X115876000Y-90358000D02*
X120421000Y-90358000D01*
X113268000Y-92966000D02*
X115876000Y-90358000D01*
D47*
X113268000Y-93091000D02*
X113268000Y-92966000D01*
X122384000Y-93138000D02*
X122384000Y-93900000D01*
X122384000Y-92285000D02*
X122384000Y-93138000D01*
X121201000Y-90358000D02*
X121201000Y-91102000D01*
X121201000Y-91102000D02*
X122384000Y-92285000D01*
D49*
X118695000Y-51070000D02*
X118745000Y-51120000D01*
X117475000Y-50800000D02*
X117205000Y-51070000D01*
X117475000Y-45085000D02*
X117475000Y-50800000D01*
X113665000Y-51070000D02*
X117205000Y-51070000D01*
X117205000Y-51070000D02*
X118695000Y-51070000D01*
X95311000Y-52070000D02*
X96536000Y-52070000D01*
D47*
X121201000Y-88458000D02*
X120996000Y-88458000D01*
X120996000Y-88458000D02*
X120142000Y-87604000D01*
X120142000Y-85598000D02*
X120142000Y-85344000D01*
X120142000Y-87604000D02*
X120142000Y-85598000D01*
X121981000Y-88458000D02*
X121201000Y-88458000D01*
X122056001Y-88533001D02*
X121981000Y-88458000D01*
X122056001Y-91195001D02*
X122056001Y-88533001D01*
X123184000Y-93900000D02*
X123184000Y-92323000D01*
X123184000Y-92323000D02*
X122056001Y-91195001D01*
D49*
X120142000Y-85471000D02*
X120142000Y-85598000D01*
X96790000Y-52195000D02*
X104140000Y-59545000D01*
X104140000Y-68680964D02*
X107110001Y-71650965D01*
X107110001Y-71650965D02*
X107110001Y-72439001D01*
X96790000Y-52070000D02*
X96790000Y-52195000D01*
X104140000Y-59545000D02*
X104140000Y-68680964D01*
X107110001Y-72439001D02*
X120142000Y-85471000D01*
X127685000Y-81595000D02*
X127635000Y-81645000D01*
X128585000Y-81595000D02*
X127685000Y-81595000D01*
X130175000Y-81595000D02*
X128585000Y-81595000D01*
D47*
X127043000Y-90358000D02*
X125499000Y-90358000D01*
X125584000Y-93900000D02*
X125584000Y-90443000D01*
X125584000Y-90443000D02*
X125499000Y-90358000D01*
X125476000Y-84554000D02*
X127635000Y-82395000D01*
X125476000Y-90335000D02*
X125476000Y-84554000D01*
X127635000Y-82395000D02*
X127635000Y-81645000D01*
X125499000Y-90358000D02*
X125476000Y-90335000D01*
D49*
X142875000Y-45085000D02*
X142875000Y-51435000D01*
X143830000Y-51435000D02*
X142875000Y-51435000D01*
X142875000Y-51435000D02*
X141970000Y-51435000D01*
X121920000Y-52560000D02*
X120920000Y-51560000D01*
X120920000Y-51560000D02*
X120920000Y-51435000D01*
X130490000Y-51735000D02*
X129665000Y-52560000D01*
X130490000Y-51435000D02*
X130490000Y-51735000D01*
X129665000Y-52560000D02*
X126220000Y-52560000D01*
X126220000Y-52560000D02*
X121920000Y-52560000D01*
D47*
X126838000Y-88458000D02*
X125984000Y-87604000D01*
X127043000Y-88458000D02*
X126838000Y-88458000D01*
X125984000Y-87604000D02*
X125984000Y-84963000D01*
D49*
X126051010Y-84895990D02*
X126051010Y-84963000D01*
X129665000Y-70483000D02*
X131625001Y-72443001D01*
X129665000Y-52560000D02*
X129665000Y-70483000D01*
X131625001Y-72443001D02*
X131625001Y-81955001D01*
X131625001Y-81955001D02*
X129125002Y-84455000D01*
X129125002Y-84455000D02*
X126492000Y-84455000D01*
X126492000Y-84455000D02*
X126051010Y-84895990D01*
D47*
X126384000Y-92457002D02*
X126384000Y-92900000D01*
X126384000Y-92900000D02*
X126384000Y-93900000D01*
X127898001Y-90943001D02*
X126384000Y-92457002D01*
X127898001Y-88533001D02*
X127898001Y-90943001D01*
X127043000Y-88458000D02*
X127823000Y-88458000D01*
X127823000Y-88458000D02*
X127898001Y-88533001D01*
D49*
X158115000Y-45085000D02*
X158115000Y-51435000D01*
X157210000Y-51435000D02*
X158115000Y-51435000D01*
X158115000Y-51435000D02*
X159070000Y-51435000D01*
X145730000Y-51735000D02*
X145730000Y-51435000D01*
X144880000Y-52585000D02*
X145730000Y-51735000D01*
X136160000Y-51560000D02*
X137185000Y-52585000D01*
X136160000Y-51435000D02*
X136160000Y-51560000D01*
X138945000Y-52585000D02*
X144880000Y-52585000D01*
X137185000Y-52585000D02*
X138945000Y-52585000D01*
X129728000Y-88458000D02*
X132842000Y-85344000D01*
X138557000Y-52705000D02*
X138437000Y-52585000D01*
X129243000Y-88458000D02*
X129728000Y-88458000D01*
X138557000Y-66929000D02*
X138557000Y-52705000D01*
X132842000Y-85344000D02*
X132842000Y-72644000D01*
X138437000Y-52585000D02*
X138945000Y-52585000D01*
X132842000Y-72644000D02*
X138557000Y-66929000D01*
D47*
X128463000Y-88458000D02*
X129243000Y-88458000D01*
X128387999Y-91195001D02*
X128387999Y-88533001D01*
X128387999Y-88533001D02*
X128463000Y-88458000D01*
X127184000Y-93900000D02*
X127184000Y-92399000D01*
X127184000Y-92399000D02*
X128387999Y-91195001D01*
D48*
X87125000Y-98407000D02*
X87249000Y-98283000D01*
X93399000Y-98283000D02*
X93751000Y-97931000D01*
X90576000Y-98283000D02*
X90820000Y-98283000D01*
X90551000Y-98258000D02*
X90576000Y-98283000D01*
X90551000Y-96758000D02*
X90551000Y-98258000D01*
X87249000Y-98283000D02*
X90820000Y-98283000D01*
X90820000Y-98283000D02*
X93399000Y-98283000D01*
X87107000Y-98425000D02*
X87249000Y-98283000D01*
X84585000Y-98425000D02*
X87107000Y-98425000D01*
D49*
X118316000Y-103632000D02*
X118284000Y-103600000D01*
X119888000Y-103632000D02*
X118316000Y-103632000D01*
D47*
X160375000Y-97024000D02*
X159725000Y-97024000D01*
X159131000Y-97618000D02*
X159131000Y-97917000D01*
X159725000Y-97024000D02*
X159131000Y-97618000D01*
D49*
X81971000Y-53975000D02*
X81915000Y-53975000D01*
X82225000Y-53721000D02*
X81971000Y-53975000D01*
X83075000Y-53721000D02*
X82225000Y-53721000D01*
D48*
X81915000Y-45085000D02*
X81915000Y-53975000D01*
X81915000Y-53975000D02*
X81915000Y-54737000D01*
D49*
X82159000Y-54737000D02*
X81915000Y-54737000D01*
X82225000Y-54671000D02*
X82159000Y-54737000D01*
X83075000Y-54671000D02*
X82225000Y-54671000D01*
X81849000Y-54671000D02*
X81915000Y-54737000D01*
X80755000Y-54671000D02*
X81849000Y-54671000D01*
X81661000Y-53721000D02*
X81915000Y-53975000D01*
X80755000Y-53721000D02*
X81661000Y-53721000D01*
X82865000Y-56469000D02*
X82865000Y-56769000D01*
X83875001Y-55458999D02*
X82865000Y-56469000D01*
X83540002Y-52771000D02*
X83875001Y-53105999D01*
X83075000Y-52771000D02*
X83540002Y-52771000D01*
X83875001Y-53105999D02*
X83875001Y-54681999D01*
X83875001Y-54681999D02*
X83875001Y-55458999D01*
X83895000Y-53086000D02*
X83875001Y-53105999D01*
X85487000Y-53086000D02*
X83895000Y-53086000D01*
X89921000Y-54036000D02*
X89982000Y-53975000D01*
X87487000Y-54036000D02*
X89921000Y-54036000D01*
X93411000Y-54275000D02*
X93411000Y-53975000D01*
X92561000Y-55125000D02*
X93411000Y-54275000D01*
X90832000Y-55125000D02*
X92561000Y-55125000D01*
X89982000Y-54275000D02*
X90832000Y-55125000D01*
X89982000Y-53975000D02*
X89982000Y-54275000D01*
X95311000Y-53975000D02*
X95758000Y-53975000D01*
X95758000Y-53975000D02*
X96901000Y-55118000D01*
X139573000Y-55556685D02*
X139573000Y-54991000D01*
X134177010Y-72759473D02*
X139573000Y-67363483D01*
X130384000Y-92997004D02*
X134177010Y-89203994D01*
X130384000Y-93900000D02*
X130384000Y-92997004D01*
X139573000Y-67363483D02*
X139573000Y-55556685D01*
X134177010Y-89203994D02*
X134177010Y-72759473D01*
D47*
X159105002Y-75704000D02*
X159385000Y-75983998D01*
X158470000Y-75704000D02*
X159105002Y-75704000D01*
X159385000Y-75983998D02*
X159385000Y-85344000D01*
X159385000Y-85344000D02*
X161290000Y-87249000D01*
X160375000Y-95624000D02*
X160375000Y-96024000D01*
X161290000Y-94709000D02*
X160375000Y-95624000D01*
X161290000Y-92329000D02*
X161290000Y-94709000D01*
X161290000Y-87249000D02*
X161290000Y-91694000D01*
X161290000Y-91694000D02*
X161290000Y-92329000D01*
X130546999Y-112914501D02*
X130622000Y-112839500D01*
X130546999Y-114626499D02*
X130546999Y-112914501D01*
X130622000Y-112839500D02*
X131402000Y-112839500D01*
X131302000Y-115381500D02*
X130546999Y-114626499D01*
X131302000Y-115506500D02*
X131302000Y-115381500D01*
D49*
X88011000Y-110302000D02*
X89789000Y-110302000D01*
D48*
X93751000Y-95631000D02*
X95631000Y-95631000D01*
X101170000Y-96750000D02*
X100051000Y-95631000D01*
X102870000Y-96750000D02*
X101170000Y-96750000D01*
D47*
X117160000Y-115955000D02*
X117410000Y-116205000D01*
D49*
X117160000Y-114300000D02*
X117160000Y-115955000D01*
D48*
X102870000Y-96750000D02*
X104370000Y-96750000D01*
X104370000Y-96750000D02*
X104775000Y-97155000D01*
D49*
X129584000Y-95150000D02*
X129584000Y-93900000D01*
X127579000Y-97155000D02*
X129584000Y-95150000D01*
X126365000Y-97155000D02*
X127579000Y-97155000D01*
X125965001Y-97554999D02*
X126365000Y-97155000D01*
X123165499Y-100354501D02*
X125965001Y-97554999D01*
X123165499Y-108031499D02*
X123165499Y-100354501D01*
X123184000Y-108050000D02*
X123165499Y-108031499D01*
X123184000Y-109300000D02*
X123184000Y-108050000D01*
X121301000Y-116268500D02*
X121301000Y-112458500D01*
X123184000Y-110575500D02*
X121301000Y-112458500D01*
X123184000Y-109300000D02*
X123184000Y-110575500D01*
D47*
X131302000Y-115631500D02*
X131302000Y-115506500D01*
D48*
X95631000Y-95631000D02*
X96774000Y-95631000D01*
X96774000Y-95631000D02*
X100051000Y-95631000D01*
D47*
X89789000Y-110175000D02*
X89916000Y-110302000D01*
D49*
X89789000Y-107315000D02*
X89789000Y-110175000D01*
X91313000Y-99695000D02*
X89789000Y-101219000D01*
X89789000Y-101219000D02*
X89789000Y-104902000D01*
X95250000Y-99695000D02*
X91313000Y-99695000D01*
X96774000Y-95631000D02*
X96774000Y-98171000D01*
X96774000Y-98171000D02*
X95250000Y-99695000D01*
D47*
X127043000Y-89408000D02*
X126238000Y-89408000D01*
X127270000Y-85979000D02*
X127270000Y-86979000D01*
X127143000Y-86598000D02*
X127127000Y-86614000D01*
X123301000Y-85979000D02*
X123301000Y-86852000D01*
X123301000Y-86852000D02*
X123317000Y-86868000D01*
X123401000Y-89408000D02*
X124206000Y-89408000D01*
X129584000Y-93900000D02*
X129584000Y-92539000D01*
X129584000Y-92539000D02*
X129921000Y-92202000D01*
D49*
X112842000Y-97155000D02*
X112903000Y-97094000D01*
X104775000Y-97155000D02*
X112842000Y-97155000D01*
D47*
X159262000Y-91944000D02*
X159004000Y-92202000D01*
X160375000Y-91944000D02*
X159262000Y-91944000D01*
X159246000Y-92444000D02*
X159004000Y-92202000D01*
X160375000Y-92444000D02*
X159246000Y-92444000D01*
X161290000Y-91944000D02*
X161290000Y-91694000D01*
X160375000Y-91944000D02*
X161290000Y-91944000D01*
X161175000Y-92444000D02*
X161290000Y-92329000D01*
X160375000Y-92444000D02*
X161175000Y-92444000D01*
D49*
X118998501Y-117343501D02*
X117860000Y-116205000D01*
X117860000Y-116205000D02*
X117410000Y-116205000D01*
X131302000Y-115822000D02*
X129780499Y-117343501D01*
X131302000Y-115697000D02*
X131302000Y-115822000D01*
X121301000Y-117332000D02*
X121289499Y-117343501D01*
X129780499Y-117343501D02*
X121289499Y-117343501D01*
X121301000Y-116268500D02*
X121301000Y-117332000D01*
X121289499Y-117343501D02*
X118998501Y-117343501D01*
D47*
X119060000Y-112445000D02*
X119110000Y-112395000D01*
D49*
X119060000Y-114300000D02*
X119060000Y-112445000D01*
X119310000Y-114550000D02*
X119060000Y-114300000D01*
X119310000Y-116205000D02*
X119310000Y-114550000D01*
D47*
X119110000Y-112270000D02*
X119110000Y-112395000D01*
D49*
X120255000Y-111125000D02*
X119110000Y-112270000D01*
X121559000Y-111125000D02*
X120255000Y-111125000D01*
X122384000Y-109300000D02*
X122384000Y-110300000D01*
X122384000Y-110300000D02*
X121559000Y-111125000D01*
X156845000Y-78039000D02*
X156845000Y-108458000D01*
X122384000Y-107779000D02*
X122384000Y-109300000D01*
X122301000Y-107696000D02*
X122384000Y-107779000D01*
X158115000Y-133350000D02*
X158115000Y-127000000D01*
X159020000Y-127000000D02*
X158115000Y-127000000D01*
X158115000Y-127000000D02*
X157160000Y-127000000D01*
X115112000Y-98994000D02*
X115189000Y-98917000D01*
X112903000Y-98994000D02*
X115112000Y-98994000D01*
D47*
X116139001Y-98091999D02*
X115314000Y-98917000D01*
X115314000Y-98917000D02*
X115189000Y-98917000D01*
X116139001Y-94045999D02*
X116139001Y-98091999D01*
X119984000Y-93900000D02*
X116285000Y-93900000D01*
X116285000Y-93900000D02*
X116139001Y-94045999D01*
D48*
X84839000Y-83820000D02*
X84839000Y-86360000D01*
X84839000Y-88405000D02*
X84709000Y-88535000D01*
X84839000Y-86360000D02*
X84839000Y-88405000D01*
X91940000Y-88535000D02*
X92710000Y-89305000D01*
X84709000Y-88535000D02*
X91940000Y-88535000D01*
D49*
X90297000Y-76519000D02*
X90184500Y-76406500D01*
X89441000Y-77150000D02*
X90184500Y-76406500D01*
X88011000Y-77150000D02*
X89441000Y-77150000D01*
X87934000Y-77073000D02*
X88011000Y-77150000D01*
X86156000Y-77150000D02*
X86106000Y-77200000D01*
X88011000Y-77150000D02*
X86156000Y-77150000D01*
D48*
X92623000Y-79518000D02*
X92710000Y-79605000D01*
D49*
X85852000Y-77200000D02*
X83947000Y-77200000D01*
D48*
X90466000Y-79605000D02*
X88011000Y-77150000D01*
X92710000Y-79605000D02*
X90466000Y-79605000D01*
D49*
X97046000Y-72832500D02*
X98171000Y-71707500D01*
X95584500Y-73866500D02*
X96377000Y-73866500D01*
X97046000Y-73197500D02*
X97046000Y-72832500D01*
X96377000Y-73866500D02*
X97046000Y-73197500D01*
X98171000Y-73707500D02*
X98171000Y-75250000D01*
X88487500Y-73866500D02*
X88011000Y-73390000D01*
X90184500Y-73866500D02*
X88487500Y-73866500D01*
X86106000Y-71485000D02*
X86106000Y-70863000D01*
X88011000Y-73390000D02*
X86106000Y-71485000D01*
X85447000Y-70204000D02*
X86106000Y-70863000D01*
X85447000Y-63627000D02*
X85447000Y-70204000D01*
X88978000Y-71390000D02*
X90184500Y-72596500D01*
X88011000Y-71390000D02*
X88978000Y-71390000D01*
D47*
X127184000Y-109300000D02*
X127184000Y-110110002D01*
D49*
X155260000Y-126700000D02*
X155260000Y-127000000D01*
X156110000Y-125850000D02*
X155260000Y-126700000D01*
X163805000Y-125850000D02*
X156110000Y-125850000D01*
X164830000Y-126875000D02*
X163805000Y-125850000D01*
X164830000Y-127000000D02*
X164830000Y-126875000D01*
X154940000Y-124680000D02*
X156110000Y-125850000D01*
X154940000Y-112395000D02*
X154940000Y-124680000D01*
X129204500Y-111887000D02*
X129355315Y-111887000D01*
X129202000Y-111889500D02*
X129204500Y-111887000D01*
X129355315Y-111887000D02*
X129921000Y-111887000D01*
D47*
X127184000Y-110823006D02*
X128250494Y-111889500D01*
X127184000Y-109300000D02*
X127184000Y-110823006D01*
X128250494Y-111889500D02*
X128422000Y-111889500D01*
X128422000Y-111889500D02*
X129202000Y-111889500D01*
D49*
X87122000Y-126349000D02*
X86979000Y-126492000D01*
X87122000Y-119794000D02*
X87122000Y-126349000D01*
X86979000Y-133334000D02*
X86995000Y-133350000D01*
X86979000Y-126492000D02*
X86979000Y-133334000D01*
X88199000Y-122020000D02*
X88299000Y-121920000D01*
X88199000Y-123825000D02*
X88199000Y-122020000D01*
X88392000Y-121827000D02*
X88299000Y-121920000D01*
X88392000Y-119794000D02*
X88392000Y-121827000D01*
X84708000Y-123825000D02*
X86299000Y-123825000D01*
D47*
X164715000Y-91444000D02*
X165735000Y-90424000D01*
X163475000Y-91444000D02*
X164715000Y-91444000D01*
X164715000Y-96524000D02*
X165735000Y-95504000D01*
X163475000Y-96524000D02*
X164715000Y-96524000D01*
X165215000Y-73164000D02*
X165735000Y-72644000D01*
X162360000Y-75704000D02*
X163195000Y-74869000D01*
X161570000Y-75704000D02*
X162360000Y-75704000D01*
X163510000Y-74869000D02*
X163195000Y-74869000D01*
X165735000Y-72644000D02*
X163510000Y-74869000D01*
X162445000Y-96024000D02*
X162433000Y-96012000D01*
X163475000Y-96024000D02*
X162445000Y-96024000D01*
X160934998Y-75704000D02*
X161570000Y-75704000D01*
X162433000Y-86742002D02*
X160528000Y-84837002D01*
X164585000Y-113284000D02*
X162433000Y-111132000D01*
X160528000Y-84837002D02*
X160528000Y-76110998D01*
X165735000Y-113284000D02*
X164585000Y-113284000D01*
X160528000Y-76110998D02*
X160934998Y-75704000D01*
X162813000Y-92456000D02*
X162433000Y-92456000D01*
X162825000Y-92444000D02*
X162813000Y-92456000D01*
X163475000Y-92444000D02*
X162825000Y-92444000D01*
X162433000Y-111132000D02*
X162433000Y-92456000D01*
X162433000Y-92456000D02*
X162433000Y-86742002D01*
X162630000Y-76204000D02*
X163195000Y-76769000D01*
X161570000Y-76204000D02*
X162630000Y-76204000D01*
X164150000Y-76769000D02*
X165735000Y-75184000D01*
X163195000Y-76769000D02*
X164150000Y-76769000D01*
D49*
X88961000Y-75250000D02*
X89074500Y-75136500D01*
X88011000Y-75250000D02*
X88961000Y-75250000D01*
X90184500Y-75136500D02*
X89074500Y-75136500D01*
X119937000Y-109347000D02*
X119984000Y-109300000D01*
X118745000Y-109347000D02*
X119937000Y-109347000D01*
D47*
X156910000Y-76204000D02*
X156845000Y-76139000D01*
X158470000Y-76204000D02*
X156910000Y-76204000D01*
D49*
X84643000Y-113111000D02*
X84643000Y-113411000D01*
X84978000Y-112776000D02*
X84643000Y-113111000D01*
X86487000Y-112776000D02*
X84978000Y-112776000D01*
X87122000Y-114394000D02*
X87122000Y-113411000D01*
X87122000Y-113411000D02*
X86487000Y-112776000D01*
X89662000Y-112329000D02*
X89789000Y-112202000D01*
X89662000Y-114394000D02*
X89662000Y-112329000D01*
X89916000Y-112202000D02*
X89916000Y-111506000D01*
X127983995Y-109300005D02*
X127983995Y-109984310D01*
X127984000Y-109300000D02*
X127983995Y-109300005D01*
X127983995Y-109984310D02*
X127983995Y-110549995D01*
X129066906Y-110617908D02*
X129115395Y-110617908D01*
X128833996Y-110384998D02*
X129066906Y-110617908D01*
X128784000Y-109300000D02*
X128833996Y-109349996D01*
X128833996Y-109349996D02*
X128833996Y-110384998D01*
X85852000Y-115824000D02*
X85852000Y-114394000D01*
D47*
X160375000Y-91444000D02*
X159262000Y-91444000D01*
X159262000Y-91444000D02*
X159004000Y-91186000D01*
D49*
X119888000Y-97554000D02*
X119534000Y-97200000D01*
X119534000Y-97200000D02*
X118284000Y-97200000D01*
X119888000Y-98298000D02*
X119888000Y-97554000D01*
X119543000Y-96400000D02*
X118284000Y-96400000D01*
X119888000Y-96055000D02*
X119543000Y-96400000D01*
D47*
X159725000Y-96524000D02*
X159258000Y-96057000D01*
X160375000Y-96524000D02*
X159725000Y-96524000D01*
X159258000Y-96057000D02*
X159258000Y-95758000D01*
X167049999Y-91649001D02*
X167375001Y-91323999D01*
X167375001Y-91323999D02*
X168275000Y-90424000D01*
X165236997Y-91649001D02*
X167049999Y-91649001D01*
X164941998Y-91944000D02*
X165236997Y-91649001D01*
X163475000Y-91944000D02*
X164941998Y-91944000D01*
X167375001Y-96403999D02*
X168275000Y-95504000D01*
X164851410Y-97024000D02*
X165146409Y-96729001D01*
X167049999Y-96729001D02*
X167375001Y-96403999D01*
X165146409Y-96729001D02*
X167049999Y-96729001D01*
X163475000Y-97024000D02*
X164851410Y-97024000D01*
D49*
X88392000Y-112583000D02*
X88011000Y-112202000D01*
X88392000Y-114394000D02*
X88392000Y-112583000D01*
X118284000Y-95600000D02*
X118284000Y-94705000D01*
D47*
X118284000Y-94705000D02*
X118364000Y-94625000D01*
D49*
X118364000Y-85344000D02*
X105410000Y-72390000D01*
X118364000Y-89281000D02*
X118364000Y-85344000D01*
D47*
X129202000Y-113789500D02*
X128422000Y-113789500D01*
D49*
X140020000Y-126700000D02*
X140020000Y-127000000D01*
X149590000Y-126875000D02*
X148565000Y-125850000D01*
X140870000Y-125850000D02*
X140020000Y-126700000D01*
X148565000Y-125850000D02*
X140870000Y-125850000D01*
X149590000Y-127000000D02*
X149590000Y-126875000D01*
D47*
X128422000Y-113789500D02*
X128422000Y-114148000D01*
X128422000Y-114148000D02*
X128270000Y-114300000D01*
D49*
X139065000Y-124045000D02*
X140870000Y-125850000D01*
X139065000Y-114300000D02*
X139065000Y-124045000D01*
D47*
X128422000Y-113789500D02*
X127549608Y-112917108D01*
X126384000Y-110659417D02*
X126384000Y-110300000D01*
X126384000Y-110300000D02*
X126384000Y-109300000D01*
X127549608Y-111825025D02*
X126384000Y-110659417D01*
X127549608Y-112917108D02*
X127549608Y-111825025D01*
D49*
X142875000Y-133350000D02*
X142875000Y-127000000D01*
X141920000Y-127000000D02*
X142875000Y-127000000D01*
X142875000Y-127000000D02*
X143780000Y-127000000D01*
X102235000Y-127238000D02*
X102235000Y-133350000D01*
X112395000Y-127238000D02*
X112395000Y-133350000D01*
X122555000Y-127238000D02*
X122555000Y-133350000D01*
X132715000Y-127238000D02*
X132715000Y-133350000D01*
X123505000Y-125238000D02*
X123505000Y-123444000D01*
X133665000Y-123317000D02*
X133665000Y-125238000D01*
X99380000Y-123190000D02*
X99314000Y-123256000D01*
X101158000Y-123190000D02*
X99380000Y-123190000D01*
X101158000Y-122890000D02*
X101158000Y-123190000D01*
X102008000Y-122040000D02*
X101158000Y-122890000D01*
X102750000Y-122040000D02*
X102008000Y-122040000D01*
X116681000Y-99600000D02*
X111506000Y-104775000D01*
X109855000Y-109855000D02*
X109855000Y-114935000D01*
X118284000Y-99600000D02*
X116681000Y-99600000D01*
X111506000Y-104775000D02*
X111506000Y-108204000D01*
X111506000Y-108204000D02*
X109855000Y-109855000D01*
X109855000Y-114935000D02*
X102750000Y-122040000D01*
X111379000Y-123383000D02*
X111445000Y-123317000D01*
X109474000Y-123383000D02*
X111379000Y-123383000D01*
X111445000Y-110170000D02*
X111445000Y-123317000D01*
X112903000Y-108712000D02*
X111445000Y-110170000D01*
X112903000Y-104745998D02*
X112903000Y-108712000D01*
X117173999Y-100474999D02*
X112903000Y-104745998D01*
X118284000Y-100400000D02*
X118284000Y-100474999D01*
X118284000Y-100474999D02*
X117173999Y-100474999D01*
X119949000Y-123444000D02*
X119761000Y-123256000D01*
X121605000Y-123444000D02*
X119949000Y-123444000D01*
X121605000Y-123444000D02*
X121605000Y-123144000D01*
X113030000Y-115675000D02*
X119761000Y-122406000D01*
X119761000Y-122406000D02*
X119761000Y-123256000D01*
X113030000Y-110490000D02*
X113030000Y-115675000D01*
X118284000Y-106800000D02*
X116720000Y-106800000D01*
X116720000Y-106800000D02*
X113030000Y-110490000D01*
D47*
X118284000Y-107600000D02*
X117809000Y-107600000D01*
D49*
X129860000Y-123317000D02*
X129794000Y-123383000D01*
X131765000Y-123317000D02*
X129860000Y-123317000D01*
X117825000Y-107600000D02*
X118284000Y-107600000D01*
X129794000Y-121793000D02*
X128270000Y-120269000D01*
X129794000Y-123383000D02*
X129794000Y-121793000D01*
X119113998Y-120269000D02*
X114427000Y-115582002D01*
X114427000Y-115582002D02*
X114427000Y-110998000D01*
X128270000Y-120269000D02*
X119113998Y-120269000D01*
X114427000Y-110998000D02*
X117825000Y-107600000D01*
X89128000Y-106111000D02*
X86268000Y-103251000D01*
X94494000Y-106111000D02*
X89128000Y-106111000D01*
X94814000Y-105791000D02*
X94494000Y-106111000D01*
X86268000Y-103251000D02*
X86228000Y-103251000D01*
X96414000Y-105791000D02*
X94814000Y-105791000D01*
X96409000Y-105796000D02*
X96414000Y-105791000D01*
X96409000Y-107442000D02*
X96409000Y-105796000D01*
X97681000Y-108839000D02*
X96409000Y-107567000D01*
X96409000Y-107567000D02*
X96409000Y-107442000D01*
X100693000Y-108839000D02*
X97681000Y-108839000D01*
X101965000Y-107442000D02*
X101965000Y-107567000D01*
X101965000Y-107567000D02*
X100693000Y-108839000D01*
X116967000Y-98733000D02*
X116967000Y-94625000D01*
X118284000Y-98800000D02*
X117034000Y-98800000D01*
X117034000Y-98800000D02*
X116967000Y-98733000D01*
M02*
